<?xml version="1.0" standalone="no"?><!DOCTYPE svg PUBLIC "-//W3C//DTD SVG 1.1//EN" "http://www.w3.org/Graphics/SVG/1.1/DTD/svg11.dtd"><svg t="1634459334977" class="icon" viewBox="0 0 1024 1024" version="1.1" xmlns="http://www.w3.org/2000/svg" p-id="33573" data-spm-anchor-id="a313x.7781069.0.i7" xmlns:xlink="http://www.w3.org/1999/xlink" width="200" height="200"><defs><style type="text/css"></style></defs><path d="M512 192c212.064 0 320 107.936 320 320s-107.936 320-320 320S192 724.064 192 512 299.936 192 512 192z m0 160a32 32 0 0 0-32 32v184.32l-22.976-22.944a32 32 0 0 0-42.24-2.656l-3.008 2.656a32 32 0 0 0 0 45.248l67.872 67.872a32 32 0 0 0 33.92 7.328 32 32 0 0 0 33.984-7.328l67.872-67.84a32 32 0 0 0-45.248-45.28l-26.176 26.112V384a32 32 0 0 0-28.256-31.776z" fill="#FF6347" p-id="33574" data-spm-anchor-id="a313x.7781069.0.i2" class="selected"></path><path d="M512 32C191.936 32 32 191.936 32 512c0 320.064 159.936 480 480 480 320.064 0 480-159.936 480-480C992 191.936 832.064 32 512 32z m0 64c284.736 0 416 131.264 416 416s-131.264 416-416 416S96 796.736 96 512 227.264 96 512 96z" fill="#FF3030" fill-opacity=".148" p-id="33575" data-spm-anchor-id="a313x.7781069.0.i5" class=""></path></svg>